<svg width="117" height="117" viewBox="0 0 117 117" fill="none" xmlns="http://www.w3.org/2000/svg">
<rect width="116.153" height="116.153" rx="58.0767" fill="#0D50C8"/>
<path d="M50.2442 43.3594H39.9839C36.4894 43.3594 34.7409 43.3594 33.4062 44.0394C32.2321 44.6376 31.2783 45.5915 30.6801 46.7655C30 48.1002 30 49.8488 30 53.3433V70.8141C30 74.3085 30 76.0533 30.6801 77.3881C31.2783 78.5621 32.2321 79.5191 33.4062 80.1173C34.7396 80.7968 36.486 80.7968 39.9737 80.7968H76.1824C79.6701 80.7968 81.414 80.7968 82.7474 80.1173C83.9215 79.5191 84.8785 78.5621 85.4767 77.3881C86.1561 76.0546 86.1561 74.3107 86.1561 70.8231V53.333C86.1561 49.8454 86.1561 48.0989 85.4767 46.7655C84.8785 45.5915 83.9215 44.6376 82.7474 44.0394C81.4127 43.3594 79.6679 43.3594 76.1734 43.3594H65.9113M50.2442 43.3594H50.437M50.2442 43.3594C50.2833 43.3594 50.3244 43.3594 50.3677 43.3594L50.437 43.3594M50.2442 43.3594C49.9131 43.3592 49.7276 43.3575 49.5809 43.3411C47.7478 43.1358 46.4905 41.391 46.8755 39.587C46.9113 39.4192 46.9821 39.2067 47.1223 38.7861L47.1283 38.7683C47.2885 38.2879 47.3685 38.0477 47.457 37.8357C48.3626 35.6656 50.4134 34.1898 52.7586 34.0169C52.9876 34 53.2393 34 53.7457 34H62.4101C62.9165 34 63.1703 34 63.3993 34.0169C65.7445 34.1898 67.7931 35.6656 68.6987 37.8357C68.7872 38.0477 68.8676 38.2876 69.0278 38.768C69.172 39.2006 69.2441 39.4171 69.2804 39.5873C69.6654 41.3913 68.4102 43.1358 66.577 43.3411C66.4303 43.3575 66.2429 43.3592 65.9113 43.3594M50.437 43.3594H65.7183M65.7183 43.3594H65.9113M65.7183 43.3594L65.7876 43.3594C65.831 43.3594 65.8721 43.3594 65.9113 43.3594M58.0781 71.4374C52.909 71.4374 48.7187 67.2471 48.7187 62.0781C48.7187 56.909 52.909 52.7187 58.0781 52.7187C63.2471 52.7187 67.4374 56.909 67.4374 62.0781C67.4374 67.2471 63.2471 71.4374 58.0781 71.4374Z" stroke="white" stroke-width="2.80781" stroke-linecap="round" stroke-linejoin="round"/>
</svg>
