<?xml version="1.0" encoding="UTF-8"?><svg id="Layer_1" xmlns="http://www.w3.org/2000/svg" viewBox="0 0 547 533"><defs><style>.cls-1{fill:#fff;}.cls-2{fill:none;stroke:#0e50c8;stroke-miterlimit:10;stroke-width:6px;}</style></defs><rect class="cls-1" width="547" height="533"/><path class="cls-2" d="M273.12,163.38c81.2,0,147.03,16.16,147.03,36.1s-65.83,36.1-147.03,36.1c81.2,0,147.03,16.16,147.03,36.1s-65.83,36.1-147.03,36.1"/><path class="cls-2" d="M273.12,452.16c-81.2,0-147.03-32.32-147.03-72.19s65.83-72.19,147.03-72.19c-81.2,0-147.03-32.32-147.03-72.19s65.83-72.19,147.03-72.19c-81.2,0-147.03,32.32-147.03,72.19s65.83,72.19,147.03,72.19c81.2,0,147.03,16.16,147.03,36.1s-65.83,36.1-147.03,36.1c-81.2,0-147.03-32.32-147.03-72.19s65.83-72.19,147.03-72.19c-81.2,0-147.03-32.32-147.03-72.19s65.83-72.19,147.03-72.19"/><polyline class="cls-2" points="263.59 81.05 274.39 91.86 263.57 102.66"/></svg>