<?xml version="1.0" encoding="UTF-8"?>
<svg id="Layer_1" data-name="Layer 1" xmlns="http://www.w3.org/2000/svg" viewBox="0 0 534.72 106.75">
  <defs>
    <style>
      .cls-1 {
        fill: #fff;
      }
    </style>
  </defs>
  <g>
    <path class="cls-1" d="M77.36,37.56c0,22.17-7.6,37.05-41.09,37.05H6.2v31.47H0V.66h36.28c33.49,0,41.09,14.73,41.09,36.9ZM71.16,37.56c0-26.82-13.8-30.7-34.88-30.7H6.2v61.55h30.08c21.09,0,34.88-4.5,34.88-30.85Z"/>
    <path class="cls-1" d="M151.78,62.99h16.9v43.1h-6.2v-39.23h-63.41v39.23h-6.2V.66h34.73c33.49,0,41.09,14.73,41.09,33.8,0,16.28-9.15,23.41-16.9,26.05v2.48ZM127.6,60.66c22.64,0,34.88-4.5,34.88-26.2,0-23.72-13.8-27.6-34.88-27.6h-28.53v53.8h28.53Z"/>
    <path class="cls-1" d="M338.29.66v105.43h-48.06v-6.2h41.86V.66h6.2Z"/>
    <path class="cls-1" d="M402.16.66c28.84,0,43.57,18.45,44.5,40.16h-6.2c-4.19-26.05-17.21-33.95-38.3-33.95-22.33,0-40.62,13.8-40.62,46.51s18.29,46.51,40.62,46.51c21.09,0,34.11-7.91,38.3-33.95h6.2c-.93,21.71-15.66,40.16-44.5,40.16-33.8,0-46.82-26.36-46.82-52.71S368.36.66,402.16.66Z"/>
    <path class="cls-1" d="M534.72,6.86h-37.06v99.23h-6.2V6.86h-37.05V.66h80.31v6.2Z"/>
  </g>
  <path class="cls-1" d="M236.29,106.75c-29.43,0-53.37-23.95-53.37-53.37S206.86,0,236.29,0s53.38,23.95,53.38,53.38-23.95,53.37-53.38,53.37ZM236.29,5.64c-26.32,0-47.74,21.42-47.74,47.74s21.41,47.74,47.74,47.74,47.74-21.41,47.74-47.74-21.42-47.74-47.74-47.74Z"/>
</svg>